<svg id="Layer_1" data-name="Layer 1" xmlns="http://www.w3.org/2000/svg" xmlns:xlink="http://www.w3.org/1999/xlink" viewBox="0 0 39 36"><defs><style>.cls-1{fill:none;}.cls-2{clip-path:url(#clip-path);}</style><clipPath id="clip-path" transform="translate(-7.58 -8)"><rect class="cls-1" width="56" height="56"/></clipPath></defs><title>homekit-glyph</title><g class="cls-2"><path d="M46.19,22.78l-4.26-3.39v-6c0-.44-.17-.57-.49-.57H38.76c-.36,0-.58.07-.58.57v3h0L28,8.39a1.26,1.26,0,0,0-1.83,0L8,22.78c-.64.5-.46,1.23.25,1.23H11.6V42.34c0,.83.25,1.29.78,1.51a2.12,2.12,0,0,0,.82.15H41a2.12,2.12,0,0,0,.82-.15c.53-.21.78-.68.78-1.51V24h3.37c.71,0,.89-.73.25-1.23m-32.37-.35a2.54,2.54,0,0,1,1-2.09l11.5-8.94a1.3,1.3,0,0,1,.81-.34,1.32,1.32,0,0,1,.81.34l11.49,8.94a2.54,2.54,0,0,1,1,2.09V40.15A1.26,1.26,0,0,1,39,41.58H15.14a1.26,1.26,0,0,1-1.32-1.43Z" transform="translate(-7.58 -8)"/><path d="M18.77,37.71H35.4a.94.94,0,0,0,1-1.06V23.92a1.66,1.66,0,0,0-.67-1.51L27.7,16a.9.9,0,0,0-1.23,0l-8,6.37a1.66,1.66,0,0,0-.66,1.51V36.64a.94.94,0,0,0,1,1.06m1.29-13a1.22,1.22,0,0,1,.47-1.15l6-4.78a.81.81,0,0,1,.51-.2.84.84,0,0,1,.51.2l6,4.78a1.21,1.21,0,0,1,.47,1.15v9.7a.75.75,0,0,1-.81.86H20.87a.75.75,0,0,1-.81-.86Z" transform="translate(-7.58 -8)"/><path d="M23.71,32.2h6.74c.31,0,.53-.1.53-.54V26.22a1,1,0,0,0-.37-.8L27.43,23a.54.54,0,0,0-.7,0l-3.17,2.45a1,1,0,0,0-.37.8v5.44c0,.44.22.54.53.54m1.78-5.13a.42.42,0,0,1,.16-.33l1.29-1a.26.26,0,0,1,.14-.05.27.27,0,0,1,.14.05l1.29,1a.42.42,0,0,1,.16.33v2.57c0,.18-.09.22-.22.22H25.71c-.13,0-.22,0-.22-.22Z" transform="translate(-7.58 -8)"/></g></svg>