<svg id="Layer_1" data-name="Layer 1" xmlns="http://www.w3.org/2000/svg" xmlns:xlink="http://www.w3.org/1999/xlink" viewBox="0 0 51.26 45.16"><defs><style>.cls-1{fill:none;}.cls-2{clip-path:url(#clip-path);}</style><clipPath id="clip-path" transform="translate(-1.74 -1.84)"><rect class="cls-1" width="56" height="56"/></clipPath></defs><title>HomeKit-Glyph</title><g class="cls-2"><path d="M32.12,13.47,28.77,10.8V6.09c0-.35-.14-.45-.38-.45H26.27c-.29,0-.46.06-.46.45v2.4h0l-8-6.34a1,1,0,0,0-1.44,0L2.05,13.47c-.5.4-.36,1,.2,1H4.9V28.86c0,.65.2,1,.61,1.19a1.66,1.66,0,0,0,.65.12H28a1.66,1.66,0,0,0,.65-.12c.41-.17.61-.53.61-1.19V14.43h2.65c.56,0,.7-.57.2-1M6.65,13.19a2,2,0,0,1,.76-1.65l9-7a1,1,0,0,1,.63-.27,1,1,0,0,1,.63.27l9,7a2,2,0,0,1,.76,1.65V27.13a1,1,0,0,1-1,1.13H7.68a1,1,0,0,1-1-1.13Z" transform="translate(-1.74 -1.84)"/><path d="M10.54,25.21H23.62a.74.74,0,0,0,.8-.84v-10a1.31,1.31,0,0,0-.52-1.18l-6.33-5a.7.7,0,0,0-1,0l-6.33,5a1.31,1.31,0,0,0-.52,1.18v10a.74.74,0,0,0,.8.84m1-10.19a1,1,0,0,1,.37-.91l4.75-3.76a.64.64,0,0,1,.4-.16.66.66,0,0,1,.4.16l4.75,3.76a1,1,0,0,1,.37.91v7.63a.59.59,0,0,1-.64.67H12.19a.59.59,0,0,1-.64-.67Z" transform="translate(-1.74 -1.84)"/><path d="M14.43,20.88h5.31c.24,0,.41-.08.41-.42V16.17a.8.8,0,0,0-.3-.63l-2.5-1.92a.43.43,0,0,0-.55,0l-2.5,1.92a.8.8,0,0,0-.29.63v4.28c0,.34.17.42.41.42m1.4-4a.33.33,0,0,1,.12-.26l1-.8a.2.2,0,0,1,.11,0,.21.21,0,0,1,.11,0l1,.8a.33.33,0,0,1,.12.26v2c0,.14-.07.18-.17.18H16c-.1,0-.17,0-.17-.18Z" transform="translate(-1.74 -1.84)"/></g><circle cx="32.52" cy="30.84" r="3.34"/><circle cx="47.92" cy="30.84" r="3.34"/><circle cx="40.22" cy="41.82" r="3.34"/><circle cx="37.83" cy="30.85" r="0.96"/><circle cx="40.22" cy="30.84" r="0.96"/><circle cx="42.6" cy="30.84" r="0.96"/><circle cx="35.52" cy="35.14" r="0.96"/><circle cx="37.16" cy="37.52" r="0.96"/><circle cx="44.88" cy="35.14" r="0.96"/><circle cx="43.22" cy="37.52" r="0.96"/></svg>